<svg width="155" height="155" viewBox="0 0 155 155" fill="none" xmlns="http://www.w3.org/2000/svg">
<path d="M61.8071 114.98C76.6739 118.326 101.516 120.774 115.173 104.729C134.365 82.1813 111.029 58.0634 111.029 58.0634C118.917 72.3751 117.119 89.8985 108.629 100.603C101.146 110.04 78.3676 116.584 61.8071 114.98Z" fill="#51A9FF"/>
<path d="M61.8071 114.98C54.5189 113.339 49.6272 111.483 49.6272 111.483C52.8429 113.398 57.0717 114.521 61.8071 114.98Z" fill="#4177A3"/>
<path d="M139.052 32C149.019 55.0483 144.587 82.8303 125.752 101.666C104.911 122.507 73.1156 125.716 48.9001 111.295C48.9001 111.295 106.537 149.981 143.362 104.788C146.202 101.301 148.468 97.8043 150.245 94.3274C147.09 99.9732 144.394 103.484 144.394 103.484C162.407 73.6231 148.333 45.4326 139.052 32Z" fill="#3AA0FE"/>
<path d="M93.2892 45.0202C78.4224 41.6739 53.5806 39.226 39.9237 55.2714C20.7317 77.8188 44.067 101.937 44.067 101.937C36.1792 87.6251 37.9773 70.1016 46.4669 59.3975C53.9508 49.9604 76.7293 43.4161 93.2892 45.0202Z" fill="#379FFE"/>
<path d="M93.2896 45.02C100.578 46.6607 105.469 48.5169 105.469 48.5169C102.254 46.6019 98.0255 45.4787 93.2896 45.02Z" fill="#4177A3"/>
<path d="M16.0446 128C6.07804 104.952 10.5094 77.1697 29.3448 58.3342C50.1861 37.493 81.9813 34.2836 106.197 48.7049C106.197 48.7049 48.5591 10.0197 11.7353 55.2127C8.8944 58.6993 6.62853 62.1962 4.85155 65.6732C8.00676 60.0274 10.7033 56.5162 10.7033 56.5162C-7.3101 86.3764 6.7643 114.567 16.0446 128Z" fill="#75BCFE"/>
<path d="M79.2366 83.4227C79.9193 82.2262 80.3628 80.9117 80.8323 79.5196C81.32 78.0739 81.8241 76.5791 82.6256 75.2026C83.6791 73.3935 85.2305 71.8916 87.0433 70.8452V59.4803C87.0433 58.0446 85.8795 56.8807 84.4437 56.8807H74.0461C72.6103 56.8807 71.4465 58.0446 71.4465 59.4803V73.0172H57.9099C56.4741 73.0172 55.3103 74.181 55.3103 75.6168V86.0144C55.3103 87.4502 56.4741 88.614 57.9099 88.614H71.3422C74.5831 88.2301 77.6153 86.2632 79.2366 83.4227Z" fill="url(#paint0_linear_52_2)"/>
<path d="M100.581 73.0175H87.0696C85.9187 73.8461 84.9343 74.9048 84.2202 76.1309C83.513 77.3458 83.0601 78.6881 82.5808 80.1093C82.1039 81.5232 81.6106 82.9853 80.8391 84.337C78.9146 87.7092 75.2997 90.0369 71.4475 90.4587V102.151C71.4475 103.587 72.6113 104.75 74.0471 104.75H84.4447C85.8805 104.75 87.0443 103.587 87.0443 102.151V88.614H100.581C102.017 88.614 103.181 87.4502 103.181 86.0144V75.6168C103.18 74.1813 102.017 73.0175 100.581 73.0175Z" fill="url(#paint1_linear_52_2)"/>
<path opacity="0.25" d="M86.9798 58.9151C86.7211 57.752 85.685 56.8817 84.444 56.8817H74.0464C72.6106 56.8817 71.4468 58.0456 71.4468 59.4813V73.0182H57.9099C56.4741 73.0182 55.3103 74.182 55.3103 75.6178V86.0154C55.3103 86.3421 55.3733 86.6533 55.4832 86.9413C61.568 86.96 67.6356 84.1009 71.3943 79.2977C73.018 77.2224 74.2213 74.8571 75.4956 72.3531C76.8188 69.7519 78.1871 67.0625 80.0853 64.6797C81.9661 62.3178 84.3344 60.3664 86.9798 58.9151Z" fill="white"/>
<defs>
<linearGradient id="paint0_linear_52_2" x1="55.4633" y1="57.0339" x2="86.3577" y2="87.9283" gradientUnits="userSpaceOnUse">
<stop stop-color="#60AEFE"/>
<stop offset="0.8166" stop-color="#319DFE"/>
</linearGradient>
<linearGradient id="paint1_linear_52_2" x1="81.1545" y1="82.7243" x2="102.237" y2="103.807" gradientUnits="userSpaceOnUse">
<stop stop-color="#62AFFF"/>
<stop offset="1" stop-color="#319DFF"/>
</linearGradient>
</defs>
</svg>
