<svg width="121" height="50" viewBox="0 0 121 50" fill="none" xmlns="http://www.w3.org/2000/svg">
<path d="M27.4116 38.0325C34.2256 39.5662 45.6114 40.6879 51.8708 33.334C60.6671 22.9997 49.9718 11.9457 49.9718 11.9457C53.587 18.5052 52.7629 26.5368 48.8718 31.4428C45.4417 35.7682 35.0018 38.7677 27.4116 38.0325Z" fill="white"/>
<path d="M27.4116 38.0324C24.0711 37.2805 21.8291 36.4297 21.8291 36.4297C23.303 37.3074 25.2412 37.8222 27.4116 38.0324Z" fill="white"/>
<path d="M62.8156 0C67.3836 10.5638 65.3526 23.2972 56.7196 31.9302C47.1674 41.4824 32.5946 42.9534 21.4958 36.3436C21.4958 36.3436 47.9128 54.0746 64.7907 33.3611C66.0928 31.7631 67.1313 30.1603 67.9458 28.5667C66.4996 31.1544 65.2639 32.7637 65.2639 32.7637C73.5198 19.0773 67.0691 6.15663 62.8156 0Z" fill="white"/>
<path d="M41.8409 5.96759C35.027 4.43386 23.6411 3.31194 17.3818 10.6661C8.58542 21.0003 19.2808 32.0544 19.2808 32.0544C15.6655 25.4948 16.4897 17.4633 20.3807 12.5572C23.8108 8.23185 34.251 5.23236 41.8409 5.96759Z" fill="white"/>
<path d="M41.8411 5.96753C45.1815 6.71949 47.4233 7.57029 47.4233 7.57029C45.9497 6.69256 44.0117 6.17774 41.8411 5.96753Z" fill="white"/>
<path d="M6.43709 43.9999C1.8691 33.4361 3.90013 20.7027 12.5331 12.0697C22.0853 2.51751 36.6581 1.04652 47.7569 7.65626C47.7569 7.65626 21.3396 -10.0745 4.46201 10.639C3.15994 12.2371 2.12141 13.8398 1.30696 15.4334C2.7531 12.8457 3.98903 11.2365 3.98903 11.2365C-4.26713 24.9224 2.18364 37.8433 6.43709 43.9999Z" fill="white"/>
<path d="M35.4003 23.5688C35.7132 23.0204 35.9165 22.4179 36.1317 21.7799C36.3552 21.1172 36.5862 20.4321 36.9536 19.8012C37.4364 18.972 38.1475 18.2837 38.9784 17.8041V12.5952C38.9784 11.9371 38.445 11.4037 37.7869 11.4037H33.0213C32.3633 11.4037 31.8298 11.9371 31.8298 12.5952V18.7996H25.6256C24.9675 18.7996 24.4341 19.333 24.4341 19.9911V24.7566C24.4341 25.4147 24.9675 25.9481 25.6256 25.9481H31.782C33.2674 25.7722 34.6572 24.8706 35.4003 23.5688Z" fill="url(#paint0_linear_42_718)"/>
<path d="M45.1829 18.7997H38.9902C38.4627 19.1795 38.0115 19.6647 37.6843 20.2267C37.3601 20.7835 37.1525 21.3987 36.9328 22.0501C36.7142 22.6982 36.4882 23.3683 36.1346 23.9878C35.2525 25.5334 33.5957 26.6003 31.8301 26.7936V32.1525C31.8301 32.8106 32.3635 33.344 33.0216 33.344H37.7871C38.4452 33.344 38.9786 32.8106 38.9786 32.1525V25.9481H45.183C45.8411 25.9481 46.3745 25.4147 46.3745 24.7566V19.991C46.3743 19.3331 45.841 18.7997 45.1829 18.7997Z" fill="url(#paint1_linear_42_718)"/>
<path opacity="0.25" d="M38.9493 12.3361C38.8307 11.8031 38.3558 11.4042 37.787 11.4042H33.0214C32.3634 11.4042 31.83 11.9376 31.83 12.5957V18.8001H25.6256C24.9675 18.8001 24.4341 19.3335 24.4341 19.9915V24.7571C24.4341 24.9069 24.4629 25.0495 24.5133 25.1815C27.3022 25.1901 30.0832 23.8796 31.8059 21.6782C32.5501 20.727 33.1016 19.6429 33.6857 18.4952C34.2922 17.303 34.9193 16.0704 35.7893 14.9783C36.6513 13.8957 37.7368 13.0013 38.9493 12.3361Z" fill="white"/>
<path d="M79.056 30.112C78.2347 30.112 77.4987 29.9787 76.848 29.712C76.1973 29.4453 75.6747 29.0507 75.28 28.528C74.896 28.0053 74.6933 27.376 74.672 26.64H77.584C77.6267 27.056 77.7707 27.376 78.016 27.6C78.2613 27.8133 78.5813 27.92 78.976 27.92C79.3813 27.92 79.7013 27.8293 79.936 27.648C80.1707 27.456 80.288 27.1947 80.288 26.864C80.288 26.5867 80.192 26.3573 80 26.176C79.8187 25.9947 79.5893 25.8453 79.312 25.728C79.0453 25.6107 78.6613 25.4773 78.16 25.328C77.4347 25.104 76.8427 24.88 76.384 24.656C75.9253 24.432 75.5307 24.1013 75.2 23.664C74.8693 23.2267 74.704 22.656 74.704 21.952C74.704 20.9067 75.0827 20.0907 75.84 19.504C76.5973 18.9067 77.584 18.608 78.8 18.608C80.0373 18.608 81.0347 18.9067 81.792 19.504C82.5493 20.0907 82.9547 20.912 83.008 21.968H80.048C80.0267 21.6053 79.8933 21.3227 79.648 21.12C79.4027 20.9067 79.088 20.8 78.704 20.8C78.3733 20.8 78.1067 20.8907 77.904 21.072C77.7013 21.2427 77.6 21.4933 77.6 21.824C77.6 22.1867 77.7707 22.4693 78.112 22.672C78.4533 22.8747 78.9867 23.0933 79.712 23.328C80.4373 23.5733 81.024 23.808 81.472 24.032C81.9307 24.256 82.3253 24.5813 82.656 25.008C82.9867 25.4347 83.152 25.984 83.152 26.656C83.152 27.296 82.9867 27.8773 82.656 28.4C82.336 28.9227 81.8667 29.3387 81.248 29.648C80.6293 29.9573 79.8987 30.112 79.056 30.112ZM88.8998 30.128C88.0251 30.128 87.2358 29.9413 86.5318 29.568C85.8384 29.1947 85.2891 28.6613 84.8838 27.968C84.4891 27.2747 84.2918 26.464 84.2918 25.536C84.2918 24.6187 84.4944 23.8133 84.8997 23.12C85.3051 22.416 85.8598 21.8773 86.5638 21.504C87.2678 21.1307 88.0571 20.944 88.9318 20.944C89.8064 20.944 90.5958 21.1307 91.2998 21.504C92.0038 21.8773 92.5584 22.416 92.9638 23.12C93.3691 23.8133 93.5718 24.6187 93.5718 25.536C93.5718 26.4533 93.3638 27.264 92.9478 27.968C92.5424 28.6613 91.9824 29.1947 91.2678 29.568C90.5638 29.9413 89.7744 30.128 88.8998 30.128ZM88.8998 27.76C89.4224 27.76 89.8651 27.568 90.2278 27.184C90.6011 26.8 90.7878 26.2507 90.7878 25.536C90.7878 24.8213 90.6064 24.272 90.2438 23.888C89.8918 23.504 89.4544 23.312 88.9318 23.312C88.3984 23.312 87.9558 23.504 87.6038 23.888C87.2518 24.2613 87.0758 24.8107 87.0758 25.536C87.0758 26.2507 87.2464 26.8 87.5878 27.184C87.9398 27.568 88.3771 27.76 88.8998 27.76ZM97.7593 22.56C98.0793 22.0693 98.4793 21.6853 98.9593 21.408C99.4393 21.12 99.9726 20.976 100.559 20.976V23.872H99.8073C99.1246 23.872 98.6126 24.0213 98.2713 24.32C97.9299 24.608 97.7593 25.12 97.7593 25.856V30H95.0233V21.072H97.7593V22.56ZM101.323 25.52C101.323 24.6027 101.494 23.7973 101.835 23.104C102.187 22.4107 102.662 21.8773 103.259 21.504C103.856 21.1307 104.523 20.944 105.259 20.944C105.888 20.944 106.438 21.072 106.907 21.328C107.387 21.584 107.755 21.92 108.011 22.336V21.072H110.747V30H108.011V28.736C107.744 29.152 107.371 29.488 106.891 29.744C106.422 30 105.872 30.128 105.243 30.128C104.518 30.128 103.856 29.9413 103.259 29.568C102.662 29.184 102.187 28.6453 101.835 27.952C101.494 27.248 101.323 26.4373 101.323 25.52ZM108.011 25.536C108.011 24.8533 107.819 24.3147 107.435 23.92C107.062 23.5253 106.603 23.328 106.059 23.328C105.515 23.328 105.051 23.5253 104.667 23.92C104.294 24.304 104.107 24.8373 104.107 25.52C104.107 26.2027 104.294 26.7467 104.667 27.152C105.051 27.5467 105.515 27.744 106.059 27.744C106.603 27.744 107.062 27.5467 107.435 27.152C107.819 26.7573 108.011 26.2187 108.011 25.536Z" fill="url(#paint2_linear_42_718)"/>
<path d="M74.528 38.368C74.528 37.2587 74.768 36.272 75.248 35.408C75.728 34.5333 76.3947 33.856 77.248 33.376C78.112 32.8853 79.088 32.64 80.176 32.64C81.5093 32.64 82.6507 32.992 83.6 33.696C84.5493 34.4 85.184 35.36 85.504 36.576H82.496C82.272 36.1067 81.952 35.7493 81.536 35.504C81.1307 35.2587 80.6667 35.136 80.144 35.136C79.3013 35.136 78.6187 35.4293 78.096 36.016C77.5733 36.6027 77.312 37.3867 77.312 38.368C77.312 39.3493 77.5733 40.1333 78.096 40.72C78.6187 41.3067 79.3013 41.6 80.144 41.6C80.6667 41.6 81.1307 41.4773 81.536 41.232C81.952 40.9867 82.272 40.6293 82.496 40.16H85.504C85.184 41.376 84.5493 42.336 83.6 43.04C82.6507 43.7333 81.5093 44.08 80.176 44.08C79.088 44.08 78.112 43.84 77.248 43.36C76.3947 42.8693 75.728 42.192 75.248 41.328C74.768 40.464 74.528 39.4773 74.528 38.368ZM89.9155 32.16V44H87.1795V32.16H89.9155ZM93.2743 34.144C92.7943 34.144 92.3996 34.0053 92.0903 33.728C91.7916 33.44 91.6423 33.088 91.6423 32.672C91.6423 32.2453 91.7916 31.8933 92.0903 31.616C92.3996 31.328 92.7943 31.184 93.2743 31.184C93.7436 31.184 94.1276 31.328 94.4263 31.616C94.7356 31.8933 94.8903 32.2453 94.8903 32.672C94.8903 33.088 94.7356 33.44 94.4263 33.728C94.1276 34.0053 93.7436 34.144 93.2743 34.144ZM94.6343 35.072V44H91.8983V35.072H94.6343ZM102.057 34.976C103.102 34.976 103.934 35.3173 104.553 36C105.182 36.672 105.497 37.6 105.497 38.784V44H102.777V39.152C102.777 38.5547 102.622 38.0907 102.313 37.76C102.004 37.4293 101.588 37.264 101.065 37.264C100.542 37.264 100.126 37.4293 99.817 37.76C99.5077 38.0907 99.353 38.5547 99.353 39.152V44H96.617V35.072H99.353V36.256C99.6303 35.8613 100.004 35.552 100.473 35.328C100.942 35.0933 101.47 34.976 102.057 34.976ZM108.774 34.144C108.294 34.144 107.9 34.0053 107.59 33.728C107.292 33.44 107.142 33.088 107.142 32.672C107.142 32.2453 107.292 31.8933 107.59 31.616C107.9 31.328 108.294 31.184 108.774 31.184C109.244 31.184 109.628 31.328 109.926 31.616C110.236 31.8933 110.39 32.2453 110.39 32.672C110.39 33.088 110.236 33.44 109.926 33.728C109.628 34.0053 109.244 34.144 108.774 34.144ZM110.134 35.072V44H107.398V35.072H110.134ZM111.573 39.536C111.573 38.608 111.76 37.7973 112.133 37.104C112.517 36.4107 113.045 35.8773 113.717 35.504C114.4 35.1307 115.178 34.944 116.053 34.944C117.173 34.944 118.106 35.2373 118.853 35.824C119.61 36.4107 120.106 37.2373 120.341 38.304H117.429C117.184 37.6213 116.709 37.28 116.005 37.28C115.504 37.28 115.104 37.4773 114.805 37.872C114.506 38.256 114.357 38.8107 114.357 39.536C114.357 40.2613 114.506 40.8213 114.805 41.216C115.104 41.6 115.504 41.792 116.005 41.792C116.709 41.792 117.184 41.4507 117.429 40.768H120.341C120.106 41.8133 119.61 42.6347 118.853 43.232C118.096 43.8293 117.162 44.128 116.053 44.128C115.178 44.128 114.4 43.9413 113.717 43.568C113.045 43.1947 112.517 42.6613 112.133 41.968C111.76 41.2747 111.573 40.464 111.573 39.536Z" fill="url(#paint3_linear_42_718)"/>
<defs>
<linearGradient id="paint0_linear_42_718" x1="24.5042" y1="11.4739" x2="38.6641" y2="25.6338" gradientUnits="userSpaceOnUse">
<stop offset="0.8166" stop-color="white"/>
</linearGradient>
<linearGradient id="paint1_linear_42_718" x1="36.2791" y1="23.2487" x2="45.9422" y2="32.9117" gradientUnits="userSpaceOnUse">
<stop offset="1" stop-color="white"/>
</linearGradient>
<linearGradient id="paint2_linear_42_718" x1="74" y1="26.5" x2="112" y2="26.5" gradientUnits="userSpaceOnUse">
<stop offset="1" stop-color="white"/>
</linearGradient>
<linearGradient id="paint3_linear_42_718" x1="74" y1="38" x2="121" y2="38" gradientUnits="userSpaceOnUse">
<stop offset="1" stop-color="white"/>
</linearGradient>
</defs>
</svg>
